# xmcd
#
# Track frame offsets: 
#        150
#        12227
#        25845
#        37421
#        50063
#        61646
#        74085
#        86435
#        97025
#        112145
#        122416
#        134179
#        141856
#        152687
#        165063
#        178398
#        188413
#        200058
#
# Disc length: 2825 seconds
#
# Revision: 0
# Processed by: cddbd v1.5.2PL0 Copyright (c) Steve Scherf et al.
# Submitted via: ExactAudioCopyFreeDBPlugin 1.0
#
DISCID=070b0712
DTITLE=สังข์ทอง สีใส - ปากเอ๋ยปาก
DYEAR=2007
DGENRE=Country
TTITLE0=ปากเอ๋ยปาก
TTITLE1=สบายบื๋อ
TTITLE2=มันจะมากเกินไป
TTITLE3=ผู้หญิงอย่างยู
TTITLE4=ท้องอยากปากหิว
TTITLE5=ดอกเบี้ยแขก
TTITLE6=โชเฟอร์
TTITLE7=รักเขาข้างเดียว
TTITLE8=มารักกันดีกว่า
TTITLE9=เสียแล้วเสียไป
TTITLE10=จับแกละ
TTITLE11=แสบ
TTITLE12=ร้อยทั้งร้อย
TTITLE13=เหนือพญายม
TTITLE14=รูปหล่อเกี้ยวสาว
TTITLE15=รักคนอ้วนดีกว่า
TTITLE16=เบ๊อะ บ๊ะ
TTITLE17=กรรมเก่า
EXTD=
EXTT0=
EXTT1=
EXTT2=
EXTT3=
EXTT4=
EXTT5=
EXTT6=
EXTT7=
EXTT8=
EXTT9=
EXTT10=
EXTT11=
EXTT12=
EXTT13=
EXTT14=
EXTT15=
EXTT16=
EXTT17=
PLAYORDER=
